<svg width="311" height="88" viewBox="0 0 311 88" fill="none" xmlns="http://www.w3.org/2000/svg">
<path d="M264.412 87.2727H232V0H265.065C274.562 0 282.719 1.74716 289.538 5.24148C296.387 8.70739 301.649 13.6932 305.323 20.1989C308.997 26.7045 310.834 34.4886 310.834 43.5511C310.834 52.642 308.981 60.4545 305.276 66.9886C301.602 73.5227 296.294 78.5369 289.351 82.0312C282.439 85.5256 274.126 87.2727 264.412 87.2727ZM249.327 73.5938H263.571C270.234 73.5938 275.791 72.4858 280.244 70.2699C284.696 68.0256 288.043 64.6875 290.285 60.2557C292.527 55.7955 293.647 50.2273 293.647 43.5511C293.647 36.875 292.527 31.3352 290.285 26.9318C288.043 22.5 284.727 19.1903 280.337 17.0028C275.978 14.7869 270.561 13.679 264.085 13.679H248.042V44.5H232V73.5938H240.663H249.327Z" fill="#4493F7"/>
<path d="M239.919 65L220 44L259.837 44L239.919 65Z" fill="#4493F7"/>
<path d="M159.222 0L180.285 31.9602H181.032L202.189 0H221.944L192.474 43.6364L222.411 87.2727H202.329L181.032 55.5256H180.285L158.989 87.2727H139L169.217 43.6364L139.374 0H159.222Z" fill="white"/>
<path d="M64.0351 87V0H128.623V13.2114H79.1388V36.8306H125.07V50.042H79.1388V73.7886H129.035V87H64.0351Z" fill="white"/>
<path d="M79.1004 0V87H63.6886L17.8267 31V27.7397V87H0.5V0H16.0052L61.8672 56V59.3027V0H79.1004Z" fill="white"/>
</svg>
